<svg width="19" height="17" viewBox="0 0 19 17" fill="none" xmlns="http://www.w3.org/2000/svg">
<path d="M16.1176 16.9925H2.99272C2.45768 16.9909 1.94502 16.7783 1.56669 16.4011C1.18836 16.0239 0.975109 15.5128 0.973511 14.9794V4.91367C0.975109 4.38024 1.18836 3.86912 1.56669 3.49192C1.94502 3.11473 2.45768 2.90212 2.99272 2.90053H16.2185C16.7536 2.90212 17.2662 3.11473 17.6446 3.49192C18.0229 3.86912 18.2362 4.38024 18.2378 4.91367V14.9794C18.1967 15.517 17.9573 16.0203 17.5657 16.3921C17.1741 16.764 16.6582 16.9779 16.1176 16.9925ZM2.99272 3.9071C2.72496 3.9071 2.46816 4.01315 2.27882 4.20192C2.08948 4.39068 1.98312 4.64671 1.98312 4.91367V14.9794C1.98312 15.2463 2.08948 15.5024 2.27882 15.6911C2.46816 15.8799 2.72496 15.9859 2.99272 15.9859H16.2185C16.4863 15.9859 16.7431 15.8799 16.9324 15.6911C17.1218 15.5024 17.2281 15.2463 17.2281 14.9794V4.91367C17.2281 4.64671 17.1218 4.39068 16.9324 4.20192C16.7431 4.01315 16.4863 3.9071 16.2185 3.9071H2.99272Z" fill="#03ae66"/>
<path d="M6.32442 3.40381C6.25705 3.40792 6.18958 3.39773 6.12646 3.37389C6.06334 3.35005 6.00602 3.31312 5.9583 3.26554C5.91057 3.21796 5.87353 3.16081 5.84962 3.09789C5.82572 3.03496 5.81549 2.96768 5.81962 2.90052V0.887379C5.81962 0.7539 5.8728 0.625887 5.96747 0.531503C6.06214 0.437119 6.19054 0.384094 6.32442 0.384094C6.4583 0.384094 6.5867 0.437119 6.68137 0.531503C6.77604 0.625887 6.82922 0.7539 6.82922 0.887379V2.90052C6.82068 3.0312 6.76475 3.15432 6.67187 3.24693C6.57899 3.33953 6.4555 3.39529 6.32442 3.40381Z" fill="#03ae66"/>
<path d="M12.8869 3.40381C12.8195 3.40792 12.752 3.39773 12.6889 3.37389C12.6258 3.35005 12.5685 3.31312 12.5207 3.26554C12.473 3.21796 12.436 3.16081 12.4121 3.09789C12.3882 3.03496 12.3779 2.96768 12.3821 2.90052V0.887379C12.3821 0.7539 12.4352 0.625887 12.5299 0.531503C12.6246 0.437119 12.753 0.384094 12.8869 0.384094C13.0207 0.384094 13.1491 0.437119 13.2438 0.531503C13.3385 0.625887 13.3917 0.7539 13.3917 0.887379V2.90052C13.3831 3.0312 13.3272 3.15432 13.2343 3.24693C13.1414 3.33953 13.0179 3.39529 12.8869 3.40381Z" fill="#03ae66"/>
<path d="M14.6032 10.9531H12.584V12.9662H14.6032V10.9531Z" fill="#03ae66"/>
<path d="M14.6032 6.92682H12.584V8.93996H14.6032V6.92682Z" fill="#03ae66"/>
<path d="M10.5648 10.9531H8.54559V12.9662H10.5648V10.9531Z" fill="#03ae66"/>
<path d="M10.5648 6.92682H8.54559V8.93996H10.5648V6.92682Z" fill="#03ae66"/>
<path d="M6.52635 10.9531H4.50714V12.9662H6.52635V10.9531Z" fill="#03ae66"/>
<path d="M6.52635 6.92682H4.50714V8.93996H6.52635V6.92682Z" fill="#03ae66"/>
</svg>
